# xmcd CD database file
#
# Track frame offsets:
#	150
#	12556
#	23798
#	37151
#	50452
#	62502
#	74298
#	85171
#	95644
#	105946
#	119828
#	133860
#	147088
#	156612
#	168168
#	179989
#	188354
#	200671
#	211964
#	222447
#	232143
#	245796
#	261315
#	272768
#	281598
#
# Disc length: 3924 seconds
#
# Revision: 0
# Processed by: cddbd v1.5.1PL0 Copyright (c) Steve Scherf et al.
# Submitted via: CDex 1.51
#
DISCID=8d0f5219
DTITLE=Tommy Brown - Classic Tommy Brown
DYEAR=2002
DGENRE=Blues
TTITLE0=Atlanta Boogie
TTITLE1=Baby Don't Leave Me
TTITLE2=Double Faced Deacon
TTITLE3=Fat Hardy's Tardy
TTITLE4=Fore Day Train
TTITLE5=Gambler's Prayer
TTITLE6=Goodbye Baby
TTITLE7=House Near The Railroad Track
TTITLE8=How Much Can I Stand
TTITLE9=Never Trust A Woman
TTITLE10=No News From Home
TTITLE11=Nosey Neighbors
TTITLE12=Old Rocking Chair
TTITLE13=Remember Me
TTITLE14=Since You Left Me Dear
TTITLE15=Some Day Some Way
TTITLE16=Southern Woman
TTITLE17=The Honky Tonk
TTITLE18=The Thrill Is Gone
TTITLE19=Tra La La La La
TTITLE20=V-8 Baby Cadillac Baby
TTITLE21=Weeping And Crying
TTITLE22=Won't You Forgive Me
TTITLE23=You've Got A Heart
TTITLE24=You've Got To deal Sometimes
EXTD=YEAR: 2002
EXTT0=
EXTT1=
EXTT2=
EXTT3=
EXTT4=
EXTT5=
EXTT6=
EXTT7=
EXTT8=
EXTT9=
EXTT10=
EXTT11=
EXTT12=
EXTT13=
EXTT14=
EXTT15=
EXTT16=
EXTT17=
EXTT18=
EXTT19=
EXTT20=
EXTT21=
EXTT22=
EXTT23=
EXTT24=
PLAYORDER=
